<svg width="38" height="35" viewBox="0 0 38 35" fill="none" xmlns="http://www.w3.org/2000/svg">
<path d="M36.1558 0.0379639L21.2573 10.9309L23.9661 4.52989L36.1558 0.0379639Z" fill="#E17726" stroke="#E17726" stroke-width="0.25" stroke-linecap="round" stroke-linejoin="round"/>
<path d="M1.95654 0.0379639L16.6293 11.0432L14.0333 4.52989L1.95654 0.0379639Z" fill="#E27625" stroke="#E27625" stroke-width="0.25" stroke-linecap="round" stroke-linejoin="round"/>
<path d="M30.8507 25.4167L26.9004 31.3686L35.3654 33.7268L37.7357 25.529L30.8507 25.4167Z" fill="#E27625" stroke="#E27625" stroke-width="0.25" stroke-linecap="round" stroke-linejoin="round"/>
<path d="M0.376709 25.529L2.74692 33.7268L11.212 31.3686L7.26162 25.4167L0.376709 25.529Z" fill="#E27625" stroke="#E27625" stroke-width="0.25" stroke-linecap="round" stroke-linejoin="round"/>
<path d="M10.7606 15.1976L8.39038 18.6788L16.7426 19.0157L16.5168 10.0319L10.7606 15.1976Z" fill="#E27625" stroke="#E27625" stroke-width="0.25" stroke-linecap="round" stroke-linejoin="round"/>
<path d="M27.3522 15.1976L21.4831 10.0319L21.2573 19.128L29.6095 18.7911L27.3522 15.1976Z" fill="#E27625" stroke="#E27625" stroke-width="0.25" stroke-linecap="round" stroke-linejoin="round"/>
<path d="M11.2124 31.3686L16.2914 28.898L11.8896 25.5291L11.2124 31.3686Z" fill="#E27625" stroke="#E27625" stroke-width="0.25" stroke-linecap="round" stroke-linejoin="round"/>
<path d="M21.8218 28.898L26.9008 31.3686L26.2236 25.5291L21.8218 28.898Z" fill="#E27625" stroke="#E27625" stroke-width="0.25" stroke-linecap="round" stroke-linejoin="round"/>
<path d="M26.9008 31.3689L21.8218 28.8983L22.2732 32.155V33.5025L26.9008 31.3689Z" fill="#D5BFB2" stroke="#D5BFB2" stroke-width="0.25" stroke-linecap="round" stroke-linejoin="round"/>
<path d="M11.2124 31.3685L15.9528 33.6145V32.2669L16.4043 29.0103L11.2124 31.3685Z" fill="#D5BFB2" stroke="#D5BFB2" stroke-width="0.25" stroke-linecap="round" stroke-linejoin="round"/>
<path d="M15.9525 23.3954L11.7764 22.1601L14.7109 20.8125L15.9525 23.3954Z" fill="#233447" stroke="#233447" stroke-width="0.25" stroke-linecap="round" stroke-linejoin="round"/>
<path d="M22.0471 23.3954L23.2887 20.8125L26.2232 22.1601L22.0471 23.3954Z" fill="#233447" stroke="#233447" stroke-width="0.25" stroke-linecap="round" stroke-linejoin="round"/>
<path d="M11.2121 31.3686L11.8893 25.4167L7.26172 25.529L11.2121 31.3686Z" fill="#CC6228" stroke="#CC6228" stroke-width="0.25" stroke-linecap="round" stroke-linejoin="round"/>
<path d="M26.1104 25.4167L26.7876 31.3686L30.7379 25.529L26.1104 25.4167Z" fill="#CC6228" stroke="#CC6228" stroke-width="0.25" stroke-linecap="round" stroke-linejoin="round"/>
<path d="M29.7221 18.7911L21.3699 19.128L22.1599 23.3954L23.4015 20.8125L26.336 22.1601L29.7221 18.7911Z" fill="#CC6228" stroke="#CC6228" stroke-width="0.25" stroke-linecap="round" stroke-linejoin="round"/>
<path d="M11.7764 22.1601L14.711 20.8125L15.9525 23.3954L16.7426 19.128L8.39038 18.7911L11.7764 22.1601Z" fill="#CC6228" stroke="#CC6228" stroke-width="0.25" stroke-linecap="round" stroke-linejoin="round"/>
<path d="M8.39038 18.7911L11.8893 25.6413L11.7764 22.2724L8.39038 18.7911Z" fill="#E27525" stroke="#E27525" stroke-width="0.25" stroke-linecap="round" stroke-linejoin="round"/>
<path d="M26.3358 22.1604L26.2229 25.5294L29.7218 18.6792L26.3358 22.1604Z" fill="#E27525" stroke="#E27525" stroke-width="0.25" stroke-linecap="round" stroke-linejoin="round"/>
<path d="M16.743 19.1281L15.9529 23.3954L16.9687 28.4488L17.1944 21.8232L16.743 19.1281Z" fill="#E27525" stroke="#E27525" stroke-width="0.25" stroke-linecap="round" stroke-linejoin="round"/>
<path d="M21.2571 19.1281L20.8057 21.8232L21.0314 28.4488L22.0472 23.3954L21.2571 19.1281Z" fill="#E27525" stroke="#E27525" stroke-width="0.25" stroke-linecap="round" stroke-linejoin="round"/>
<path d="M22.0468 23.3957L21.031 28.4491L21.7082 28.8983L26.11 25.5293L26.2229 22.1604L22.0468 23.3957Z" fill="#F5841F" stroke="#F5841F" stroke-width="0.25" stroke-linecap="round" stroke-linejoin="round"/>
<path d="M11.7764 22.1604L11.8892 25.5293L16.2911 28.8983L16.9683 28.4491L15.9525 23.3957L11.7764 22.1604Z" fill="#F5841F" stroke="#F5841F" stroke-width="0.25" stroke-linecap="round" stroke-linejoin="round"/>
<path d="M22.1605 33.6145V32.2669L21.8219 31.93H16.1786L15.84 32.2669V33.6145L11.2124 31.3685L12.9054 32.7161L16.1786 34.9621H21.9348L25.3208 32.7161L26.901 31.3685L22.1605 33.6145Z" fill="#C0AC9D" stroke="#C0AC9D" stroke-width="0.25" stroke-linecap="round" stroke-linejoin="round"/>
<path d="M21.8213 28.898L21.1441 28.4489H16.968L16.2908 28.898L15.8394 32.1547L16.178 31.8178H21.8213L22.1599 32.1547L21.8213 28.898Z" fill="#161616" stroke="#161616" stroke-width="0.25" stroke-linecap="round" stroke-linejoin="round"/>
<path d="M36.7203 11.717L37.9618 5.65287L36.0431 0.0379639L21.8218 10.594L27.3523 15.1982L35.1401 17.4442L36.8331 15.4228L36.0431 14.9736L37.2846 13.8506L36.3817 13.1769L37.6232 12.2785L36.7203 11.717Z" fill="#763E1A" stroke="#763E1A" stroke-width="0.25" stroke-linecap="round" stroke-linejoin="round"/>
<path d="M0.0380859 5.65287L1.27963 11.717L0.489555 12.2785L1.7311 13.1768L0.828157 13.8506L2.0697 14.9736L1.27963 15.5351L2.97264 17.5565L10.7605 15.3105L16.291 10.7063L1.95683 0.0379639L0.0380859 5.65287Z" fill="#763E1A" stroke="#763E1A" stroke-width="0.25" stroke-linecap="round" stroke-linejoin="round"/>
<path d="M35.1394 17.4436L27.3516 15.1976L29.7218 18.6789L26.2229 25.5291L30.8505 25.4168H37.7354L35.1394 17.4436Z" fill="#F5841F" stroke="#F5841F" stroke-width="0.25" stroke-linecap="round" stroke-linejoin="round"/>
<path d="M10.7605 15.1976L2.97266 17.4436L0.376709 25.4168H7.26162L11.8892 25.5291L8.39029 18.6789L10.7605 15.1976Z" fill="#F5841F" stroke="#F5841F" stroke-width="0.25" stroke-linecap="round" stroke-linejoin="round"/>
<path d="M21.2573 19.1283L21.7087 10.5936L23.9661 4.52954H13.9209L16.1782 10.5936L16.6297 19.1283L16.8555 21.8235V28.4491H21.0315V21.8235L21.2573 19.1283Z" fill="#F5841F" stroke="#F5841F" stroke-width="0.25" stroke-linecap="round" stroke-linejoin="round"/>
</svg>
