<svg width="98" height="20" viewBox="0 0 98 20" fill="none" xmlns="http://www.w3.org/2000/svg">
<path d="M17.1005 2.93749C16.1713 2.00785 15.0672 1.27058 13.8516 0.768055C12.6359 0.265532 11.3327 0.00767112 10.0168 0.00928487H3.53337C2.59616 0.00928487 1.69726 0.380729 1.03455 1.04191C0.371845 1.70309 -0.000488281 2.59985 -0.000488281 3.5349V16.4719C-0.000488281 17.407 0.371845 18.3037 1.03455 18.9649C1.69726 19.6261 2.59616 19.9975 3.53337 19.9975H4.82759V4.82763H10.0168C10.711 4.82766 11.398 4.96665 12.0373 5.23636C12.6766 5.50608 13.2553 5.90102 13.7389 6.39783C14.2225 6.89465 14.6012 7.48322 14.8527 8.12871C15.1042 8.77419 15.2233 9.46346 15.203 10.1557C15.1488 11.513 14.568 12.7961 13.5831 13.734C12.5983 14.672 11.2865 15.1912 9.92503 15.1821C8.96473 15.1822 8.02712 15.4738 7.2369 16.0181C6.44667 16.5625 5.84129 17.3339 5.501 18.2298L4.82807 20.0005H10.0173C11.9988 20.0006 13.9359 19.4145 15.5835 18.3162C17.2311 17.2178 18.5151 15.6567 19.2734 13.8302C20.0316 12.0038 20.2298 9.99395 19.843 8.05503C19.4562 6.11612 18.5018 4.33518 17.1005 2.93749Z" fill="#F5F6F7"/>
<path d="M26.9465 18.7058C25.4297 17.8679 24.1696 16.6346 23.3009 15.1376C22.4159 13.5669 21.9509 11.7955 21.9509 9.99364C21.9509 8.19182 22.4159 6.42033 23.3009 4.84968C24.173 3.35882 25.4325 2.1307 26.9465 1.29516C28.4977 0.456921 30.234 0.0179443 31.9981 0.0179443C33.7622 0.0179443 35.4984 0.456921 37.0496 1.29516C38.5596 2.12654 39.8113 3.35623 40.6678 4.84968C41.5375 6.42583 41.9924 8.19623 41.99 9.99541C41.9876 11.7946 41.5279 13.5638 40.6541 15.1376C39.7956 16.6331 38.5448 17.8668 37.036 18.7058C35.4873 19.5442 33.7532 19.9833 31.9912 19.9833C30.2293 19.9833 28.4952 19.5442 26.9465 18.7058ZM35.7416 14.0966C36.6529 12.9168 37.1472 11.4693 37.1472 9.97993C37.1472 8.49051 36.6529 7.043 35.7416 5.8633C35.2672 5.35068 34.6867 4.94726 34.0402 4.68115C33.3938 4.41503 32.697 4.29258 31.9983 4.32229C31.2965 4.29044 30.5961 4.41044 29.9451 4.67406C29.2942 4.93769 28.7081 5.33871 28.2271 5.84958C27.3157 7.03448 26.8215 8.48633 26.8215 9.97993C26.8215 11.4735 27.3157 12.9254 28.2271 14.1103C28.7059 14.6249 29.2912 15.0293 29.9425 15.2955C30.5937 15.5617 31.2952 15.6833 31.9983 15.6518C32.6983 15.6811 33.3961 15.5571 34.0429 15.2884C34.6896 15.0197 35.2694 14.6129 35.7416 14.0966Z" fill="#F5F6F7"/>
<path d="M65.9288 18.7058C64.4121 17.8678 63.152 16.6345 62.2832 15.1376C61.3981 13.567 60.9331 11.7955 60.9331 9.99364C60.9331 8.1918 61.3981 6.4203 62.2832 4.84968C63.1553 3.35883 64.4149 2.13072 65.9288 1.29516C67.48 0.456921 69.2163 0.0179443 70.9804 0.0179443C72.7445 0.0179443 74.4807 0.456921 76.0319 1.29516C77.5418 2.12662 78.7935 3.35629 79.6501 4.84968C80.5197 6.42584 80.9746 8.19624 80.9721 9.99541C80.9697 11.7946 80.5102 13.5637 79.6363 15.1376C78.7779 16.633 77.527 17.8667 76.0183 18.7058C74.4697 19.5441 72.7357 19.9832 70.9738 19.9832C69.2119 19.9832 67.4774 19.5441 65.9288 18.7058ZM74.7239 14.0966C75.6352 12.9168 76.1295 11.4693 76.1295 9.97993C76.1295 8.49051 75.6352 7.043 74.7239 5.8633C74.2495 5.35065 73.669 4.94724 73.0225 4.68112C72.3761 4.415 71.6793 4.29255 70.9806 4.32229C70.2788 4.29048 69.5784 4.4105 68.9274 4.67412C68.2765 4.93775 67.6904 5.33873 67.2094 5.84958C66.298 7.03451 65.8041 8.48635 65.8041 9.97993C65.8041 11.4735 66.298 12.9253 67.2094 14.1103C67.6882 14.6249 68.2735 15.0293 68.9248 15.2955C69.576 15.5617 70.2775 15.6833 70.9806 15.6518C71.6803 15.6809 72.378 15.5568 73.0244 15.2881C73.6709 15.0194 74.2505 14.6127 74.7225 14.0966H74.7239Z" fill="#F5F6F7"/>
<path d="M58.2285 9.51224C57.6616 10.4988 56.8169 11.2975 55.799 11.8093C54.5357 12.4301 53.1382 12.7302 51.7308 12.6829C50.8082 12.6828 49.8998 12.9081 49.0847 13.3391C48.2695 13.77 47.5725 14.3936 47.0545 15.1552L43.9055 19.7855V-0.00149966H51.7308C53.1133 -0.0434883 54.4867 0.236293 55.7421 0.815729C56.7706 1.30168 57.6276 2.08698 58.2001 3.06822C58.759 4.07638 59.0417 5.21374 59.0197 6.36565C59.0323 7.46503 58.7597 8.54898 58.2285 9.51224ZM53.426 8.2019C53.8636 7.69128 54.104 7.04157 54.104 6.3698C54.104 5.69803 53.8636 5.04832 53.426 4.5377C52.8492 4.06312 52.1101 3.83068 51.3647 3.88939H48.7374V8.85021H51.3647C52.1096 8.90875 52.8482 8.6763 53.4246 8.2019H53.426Z" fill="#F5F6F7"/>
<path d="M97.2089 9.51222C96.6422 10.4988 95.7974 11.2976 94.7795 11.8093C93.5164 12.4302 92.119 12.7302 90.7117 12.6828C89.7892 12.6829 88.8808 12.9082 88.0656 13.3391C87.2505 13.7701 86.5535 14.3936 86.0355 15.1552L82.8865 19.7855V-0.00151282H90.7117C92.0943 -0.0434294 93.4677 0.236348 94.7231 0.815716C95.7515 1.30182 96.6084 2.08708 97.181 3.06821C97.7397 4.07644 98.0222 5.21378 98.0001 6.36564C98.0128 7.46503 97.7403 8.54899 97.2089 9.51222ZM92.4065 8.20189C92.8441 7.69131 93.0846 7.04159 93.0846 6.36979C93.0846 5.69799 92.8441 5.04827 92.4065 4.53769C91.8296 4.06315 91.0906 3.83072 90.3452 3.88938H87.7179V8.8502H90.3452C91.0906 8.90912 91.8297 8.67665 92.4065 8.20189Z" fill="#F5F6F7"/>
</svg>
